<svg width="30" height="27" viewBox="0 0 30 27" fill="none" xmlns="http://www.w3.org/2000/svg">
<path d="M5.5 20.1667H4.16667C3.45942 20.1667 2.78115 19.8857 2.28105 19.3856C1.78095 18.8855 1.5 18.2072 1.5 17.5V4.16667C1.5 3.45942 1.78095 2.78115 2.28105 2.28105C2.78115 1.78095 3.45942 1.5 4.16667 1.5H25.5C26.2072 1.5 26.8855 1.78095 27.3856 2.28105C27.8857 2.78115 28.1667 3.45942 28.1667 4.16667V17.5C28.1667 18.2072 27.8857 18.8855 27.3856 19.3856C26.8855 19.8857 26.2072 20.1667 25.5 20.1667H24.1667M14.8333 17.5L21.5 25.5H8.16667L14.8333 17.5Z" stroke="#1E1E1E" stroke-width="3" stroke-linecap="round" stroke-linejoin="round"/>
</svg>
