<svg width="37" height="34" viewBox="0 0 37 34" fill="none" xmlns="http://www.w3.org/2000/svg">
<path d="M6.78054 25.1968H5.10633C4.21827 25.1968 3.36659 24.844 2.73864 24.2161C2.11069 23.5881 1.75792 22.7364 1.75792 21.8484V5.10633C1.75792 4.21827 2.11069 3.36659 2.73864 2.73864C3.36659 2.11069 4.21827 1.75792 5.10633 1.75792H31.8936C32.7817 1.75792 33.6334 2.11069 34.2613 2.73864C34.8893 3.36659 35.242 4.21827 35.242 5.10633V21.8484C35.242 22.7364 34.8893 23.5881 34.2613 24.2161C33.6334 24.844 32.7817 25.1968 31.8936 25.1968H30.2194M18.5 21.8484L26.871 31.8936H10.1289L18.5 21.8484Z" stroke="#1E1E1E" stroke-width="3.5" stroke-linecap="round" stroke-linejoin="round"/>
</svg>
