<svg width="23" height="21" viewBox="0 0 23 21" fill="none" xmlns="http://www.w3.org/2000/svg">
<path d="M4.34444 15.5889H3.32222C2.78 15.5889 2.25999 15.3735 1.87658 14.9901C1.49317 14.6067 1.27778 14.0867 1.27778 13.5444V3.32222C1.27778 2.78 1.49317 2.25999 1.87658 1.87658C2.25999 1.49317 2.78 1.27778 3.32222 1.27778H19.6778C20.22 1.27778 20.74 1.49317 21.1234 1.87658C21.5068 2.25999 21.7222 2.78 21.7222 3.32222V13.5444C21.7222 14.0867 21.5068 14.6067 21.1234 14.9901C20.74 15.3735 20.22 15.5889 19.6778 15.5889H18.6556M11.5 13.5444L16.6111 19.6778H6.38889L11.5 13.5444Z" stroke="#1E1E1E" stroke-width="2.5" stroke-linecap="round" stroke-linejoin="round"/>
</svg>
