<svg width="15" height="14" viewBox="0 0 15 14" fill="none" xmlns="http://www.w3.org/2000/svg">
<path d="M2.81248 10.1786H2.14284C1.78764 10.1786 1.44699 10.0375 1.19583 9.78634C0.944661 9.53518 0.803558 9.19453 0.803558 8.83933V2.1429C0.803558 1.7877 0.944661 1.44705 1.19583 1.19589C1.44699 0.944722 1.78764 0.80362 2.14284 0.80362H12.8571C13.2123 0.80362 13.553 0.944722 13.8041 1.19589C14.0553 1.44705 14.1964 1.7877 14.1964 2.1429V8.83933C14.1964 9.19453 14.0553 9.53518 13.8041 9.78634C13.553 10.0375 13.2123 10.1786 12.8571 10.1786H12.1875M7.49998 8.83933L10.8482 12.8572H4.15177L7.49998 8.83933Z" stroke="#1E1E1E" stroke-width="1.6" stroke-linecap="round" stroke-linejoin="round"/>
</svg>
