<svg width="19" height="17" viewBox="0 0 19 17" fill="none" xmlns="http://www.w3.org/2000/svg">
<path d="M3.5 12.6667H2.66667C2.22464 12.6667 1.80072 12.4911 1.48816 12.1785C1.17559 11.866 1 11.442 1 11V2.66667C1 2.22464 1.17559 1.80072 1.48816 1.48816C1.80072 1.17559 2.22464 1 2.66667 1H16C16.442 1 16.866 1.17559 17.1785 1.48816C17.4911 1.80072 17.6667 2.22464 17.6667 2.66667V11C17.6667 11.442 17.4911 11.866 17.1785 12.1785C16.866 12.4911 16.442 12.6667 16 12.6667H15.1667M9.33333 11L13.5 16H5.16667L9.33333 11Z" stroke="#1E1E1E" stroke-width="2" stroke-linecap="round" stroke-linejoin="round"/>
</svg>
