<svg width="415" height="88" viewBox="0 0 415 88" fill="none" xmlns="http://www.w3.org/2000/svg">
<rect x="0.5" y="0.5" width="414" height="87" rx="4.5" stroke="#2C2C2C" stroke-dasharray="10 5"/>
<path d="M44 37.9999V45.9999M44 53.9999H44.02M40.58 27.7199L23.64 55.9999C23.2908 56.6048 23.106 57.2905 23.104 57.989C23.1021 58.6874 23.283 59.3742 23.6289 59.981C23.9748 60.5878 24.4735 61.0934 25.0755 61.4476C25.6774 61.8018 26.3616 61.9922 27.06 61.9999H60.94C61.6384 61.9922 62.3227 61.8018 62.9246 61.4476C63.5266 61.0934 64.0253 60.5878 64.3712 59.981C64.7171 59.3742 64.898 58.6874 64.8961 57.989C64.8941 57.2905 64.7093 56.6048 64.36 55.9999L47.42 27.7199C47.0635 27.1321 46.5615 26.6462 45.9624 26.3089C45.3634 25.9716 44.6875 25.7944 44 25.7944C43.3126 25.7944 42.6367 25.9716 42.0377 26.3089C41.4386 26.6462 40.9366 27.1321 40.58 27.7199Z" stroke="#1E1E1E" stroke-width="4" stroke-linecap="round" stroke-linejoin="round"/>
<path d="M115 25.9999V28.6666M115 31.3332H115.007M113.86 22.5732L108.213 31.9999C108.097 32.2015 108.035 32.4301 108.035 32.6629C108.034 32.8957 108.094 33.1246 108.21 33.3269C108.325 33.5292 108.491 33.6977 108.692 33.8158C108.892 33.9339 109.121 33.9973 109.353 33.9999H120.647C120.879 33.9973 121.108 33.9339 121.308 33.8158C121.509 33.6977 121.675 33.5292 121.79 33.3269C121.906 33.1246 121.966 32.8957 121.965 32.6629C121.965 32.4301 121.903 32.2015 121.787 31.9999L116.14 22.5732C116.021 22.3773 115.854 22.2153 115.654 22.1029C115.454 21.9905 115.229 21.9314 115 21.9314C114.771 21.9314 114.546 21.9905 114.346 22.1029C114.146 22.2153 113.979 22.3773 113.86 22.5732Z" stroke="#1E1E1E" stroke-width="1.6" stroke-linecap="round" stroke-linejoin="round"/>
<path d="M172 27.4999V30.8333M172 34.1666H172.008M170.575 23.2166L163.517 34.9999C163.371 35.2519 163.294 35.5377 163.293 35.8287C163.292 36.1197 163.368 36.4059 163.512 36.6587C163.656 36.9115 163.864 37.1222 164.115 37.2698C164.365 37.4174 164.651 37.4967 164.942 37.4999H179.058C179.349 37.4967 179.634 37.4174 179.885 37.2698C180.136 37.1222 180.344 36.9115 180.488 36.6587C180.632 36.4059 180.707 36.1197 180.707 35.8287C180.706 35.5377 180.629 35.2519 180.483 34.9999L173.425 23.2166C173.276 22.9717 173.067 22.7692 172.818 22.6287C172.568 22.4881 172.286 22.4143 172 22.4143C171.713 22.4143 171.432 22.4881 171.182 22.6287C170.933 22.7692 170.723 22.9717 170.575 23.2166Z" stroke="#1E1E1E" stroke-width="2" stroke-linecap="round" stroke-linejoin="round"/>
<path d="M233 29V33M233 37H233.01M231.29 23.86L222.82 38C222.645 38.3024 222.553 38.6453 222.552 38.9945C222.551 39.3437 222.642 39.6871 222.814 39.9905C222.987 40.2939 223.237 40.5467 223.538 40.7238C223.839 40.9009 224.181 40.9961 224.53 41H241.47C241.819 40.9961 242.161 40.9009 242.462 40.7238C242.763 40.5467 243.013 40.2939 243.186 39.9905C243.359 39.6871 243.449 39.3437 243.448 38.9945C243.447 38.6453 243.355 38.3024 243.18 38L234.71 23.86C234.532 23.5661 234.281 23.3231 233.981 23.1544C233.682 22.9858 233.344 22.8972 233 22.8972C232.656 22.8972 232.318 22.9858 232.019 23.1544C231.719 23.3231 231.468 23.5661 231.29 23.86Z" stroke="#1E1E1E" stroke-width="2.5" stroke-linecap="round" stroke-linejoin="round"/>
<path d="M300 32V37.3334M300 42.6667H300.013M297.72 25.1467L286.427 44C286.194 44.4033 286.071 44.8604 286.069 45.3261C286.068 45.7917 286.189 46.2495 286.419 46.6541C286.65 47.0586 286.982 47.3957 287.384 47.6318C287.785 47.868 288.241 47.9949 288.707 48H311.293C311.759 47.9949 312.215 47.868 312.616 47.6318C313.018 47.3957 313.35 47.0586 313.581 46.6541C313.811 46.2495 313.932 45.7917 313.931 45.3261C313.929 44.8604 313.806 44.4033 313.573 44L302.28 25.1467C302.042 24.7548 301.708 24.4309 301.308 24.206C300.909 23.9812 300.458 23.863 300 23.863C299.542 23.863 299.091 23.9812 298.692 24.206C298.292 24.4309 297.958 24.7548 297.72 25.1467Z" stroke="#1E1E1E" stroke-width="3" stroke-linecap="round" stroke-linejoin="round"/>
<path d="M375 35.0001V41.6668M375 48.3334H375.017M372.15 26.4334L358.033 50.0001C357.742 50.5041 357.588 51.0756 357.587 51.6576C357.585 52.2397 357.736 52.812 358.024 53.3176C358.312 53.8233 358.728 54.2447 359.23 54.5398C359.731 54.835 360.301 54.9937 360.883 55.0001H389.117C389.699 54.9937 390.269 54.835 390.771 54.5398C391.272 54.2447 391.688 53.8233 391.976 53.3176C392.264 52.812 392.415 52.2397 392.413 51.6576C392.412 51.0756 392.258 50.5041 391.967 50.0001L377.85 26.4334C377.553 25.9436 377.135 25.5386 376.635 25.2576C376.136 24.9765 375.573 24.8289 375 24.8289C374.427 24.8289 373.864 24.9765 373.365 25.2576C372.865 25.5386 372.447 25.9436 372.15 26.4334Z" stroke="#1E1E1E" stroke-width="3.5" stroke-linecap="round" stroke-linejoin="round"/>
</svg>
