<svg width="40" height="40" viewBox="0 0 40 40" fill="none" xmlns="http://www.w3.org/2000/svg">
<path d="M20 15.0001V21.6668M20 28.3334H20.0167M17.15 6.43343L3.03337 30.0001C2.74231 30.5041 2.58831 31.0756 2.58668 31.6576C2.58505 32.2397 2.73585 32.812 3.02408 33.3176C3.31231 33.8233 3.72791 34.2447 4.22955 34.5398C4.73118 34.835 5.30137 34.9937 5.88337 35.0001H34.1167C34.6987 34.9937 35.2689 34.835 35.7705 34.5398C36.2722 34.2447 36.6878 33.8233 36.976 33.3176C37.2642 32.812 37.415 32.2397 37.4134 31.6576C37.4118 31.0756 37.2578 30.5041 36.9667 30.0001L22.85 6.43343C22.5529 5.94361 22.1346 5.53863 21.6354 5.25757C21.1362 4.97651 20.5729 4.82886 20 4.82886C19.4271 4.82886 18.8639 4.97651 18.3647 5.25757C17.8655 5.53863 17.4472 5.94361 17.15 6.43343Z" stroke="#1E1E1E" stroke-width="3.5" stroke-linecap="round" stroke-linejoin="round"/>
</svg>
