<svg width="415" height="88" viewBox="0 0 415 88" fill="none" xmlns="http://www.w3.org/2000/svg">
<rect x="0.5" y="0.5" width="414" height="87" rx="4.5" stroke="#2C2C2C" stroke-dasharray="10 5"/>
<path d="M44 36V44M44 52H44.02M64 44C64 55.0457 55.0457 64 44 64C32.9543 64 24 55.0457 24 44C24 32.9543 32.9543 24 44 24C55.0457 24 64 32.9543 64 44Z" stroke="#1E1E1E" stroke-width="4" stroke-linecap="round" stroke-linejoin="round"/>
<g clip-path="url(#clip0_4039_13020)">
<path d="M115 25.3333V27.9999M115 30.6666H115.007M121.667 27.9999C121.667 31.6818 118.682 34.6666 115 34.6666C111.318 34.6666 108.333 31.6818 108.333 27.9999C108.333 24.318 111.318 21.3333 115 21.3333C118.682 21.3333 121.667 24.318 121.667 27.9999Z" stroke="#1E1E1E" stroke-width="1.6" stroke-linecap="round" stroke-linejoin="round"/>
</g>
<g clip-path="url(#clip1_4039_13020)">
<path d="M172 26.6667V30.0001M172 33.3334H172.008M180.333 30.0001C180.333 34.6025 176.602 38.3334 172 38.3334C167.398 38.3334 163.667 34.6025 163.667 30.0001C163.667 25.3977 167.398 21.6667 172 21.6667C176.602 21.6667 180.333 25.3977 180.333 30.0001Z" stroke="#1E1E1E" stroke-width="2" stroke-linecap="round" stroke-linejoin="round"/>
</g>
<g clip-path="url(#clip2_4039_13020)">
<path d="M233 28V32M233 36H233.01M243 32C243 37.5228 238.523 42 233 42C227.477 42 223 37.5228 223 32C223 26.4772 227.477 22 233 22C238.523 22 243 26.4772 243 32Z" stroke="#1E1E1E" stroke-width="2.5" stroke-linecap="round" stroke-linejoin="round"/>
</g>
<path d="M300 30.6667V36.0001M300 41.3334H300.013M313.333 36.0001C313.333 43.3639 307.364 49.3334 300 49.3334C292.636 49.3334 286.667 43.3639 286.667 36.0001C286.667 28.6363 292.636 22.6667 300 22.6667C307.364 22.6667 313.333 28.6363 313.333 36.0001Z" stroke="#1E1E1E" stroke-width="3" stroke-linecap="round" stroke-linejoin="round"/>
<path d="M375 33.3333V39.9999M375 46.6666H375.017M391.667 39.9999C391.667 49.2047 384.205 56.6666 375 56.6666C365.795 56.6666 358.333 49.2047 358.333 39.9999C358.333 30.7952 365.795 23.3333 375 23.3333C384.205 23.3333 391.667 30.7952 391.667 39.9999Z" stroke="#1E1E1E" stroke-width="3.5" stroke-linecap="round" stroke-linejoin="round"/>
<defs>
<clipPath id="clip0_4039_13020">
<rect width="16" height="16" fill="white" transform="translate(107 20)"/>
</clipPath>
<clipPath id="clip1_4039_13020">
<rect width="20" height="20" fill="white" transform="translate(162 20)"/>
</clipPath>
<clipPath id="clip2_4039_13020">
<rect width="24" height="24" fill="white" transform="translate(221 20)"/>
</clipPath>
</defs>
</svg>
